<svg id="Слой_1" data-name="Слой 1" xmlns="http://www.w3.org/2000/svg" viewBox="0 0 1024 1024"><path d="M582.78,819c0,39,.12,78,0,117-.14,34.79-23.58,63.56-56.82,70.15a70.63,70.63,0,0,1-84.82-69.35c-.15-76,0-152-.1-228a101.16,101.16,0,0,0-1.13-16.42c-3.47-21.09-18-33.07-37.95-30.09-7.85,1.17-15.6,4.63-22.77,8.29-11.4,5.82-22.27,12.68-33.37,19.09Q263,737.55,180.15,785.34c-41.38,23.77-92.26,2.87-104.61-42.7-8.35-30.83,5.08-63,33.51-79.55Q184.43,619.33,260,575.87c16-9.24,32.12-18.28,47.9-27.89a80.91,80.91,0,0,0,16.8-13.19c13.08-13.89,13-32-.27-45.67a86.34,86.34,0,0,0-18.62-14.05q-97.6-56.67-195.49-112.89C91.83,351.56,79.35,336.37,75,315.46c-6.14-29.34,2.65-54.13,26.49-72.09,23.68-17.84,50-19.74,76.09-5.51,28.94,15.75,57.23,32.7,85.8,49.14q57.56,33.15,115.09,66.33c8.3,4.79,16.94,8.54,26.71,9,14.27.62,25.12-6,31.13-19,3.93-8.51,4.8-17.56,4.8-26.81Q441,202.26,441.13,88c.07-27.13,11.9-48.3,35.36-62,47.48-27.77,106,6.5,106.22,62.18.26,63.5.07,127,.07,190.49,0,13.16-.19,26.33.1,39.49a77.59,77.59,0,0,0,2,17.28c5.42,21.56,22.55,31.32,43.84,24.89a85.45,85.45,0,0,0,17.69-7.92c65.79-37.86,131.44-76,197.25-113.82C883.05,216,931.83,234,946.55,276.3c11.16,32.05-1.76,67.07-31.65,84.55-37.36,21.86-74.92,43.37-112.39,65-29,16.74-58.07,33.26-86.85,50.34a74.75,74.75,0,0,0-18,14.77c-11.42,13.09-11.2,29.82.64,42.57a85.35,85.35,0,0,0,19.55,15.25C783.63,587,849.66,624.8,915.47,663c25.53,14.8,38.46,42.39,34.43,71.66-3.75,27.28-24.27,50.33-51.57,57.71-19.51,5.27-37.9,2.24-55.31-7.81q-63.15-36.45-126.36-72.8c-23.95-13.79-47.77-27.79-71.92-41.24-6.59-3.66-13.9-6.81-21.26-8.17-20.19-3.72-35.44,7.75-39.34,28.81a91.61,91.61,0,0,0-1.31,16.39C582.73,744.67,582.78,781.83,582.78,819Z"/></svg>